<svg width="24" height="24" viewBox="0 0 24 24" fill="none" xmlns="http://www.w3.org/2000/svg">
<path d="M10.9998 2V7H8.99976V2H10.9998ZM6.99976 3V7H4.99976V3H6.99976ZM14.9998 3V7H12.9998V3H14.9998ZM2.92676 8H20.9998V13C20.9998 14.0609 20.5783 15.0783 19.8282 15.8284C19.078 16.5786 18.0606 17 16.9998 17H16.0668C15.5292 18.2384 14.6285 19.2844 13.4838 20H19.9998V22H2.99976V20H6.50576C5.63557 19.4574 4.90379 18.7195 4.36846 17.8448C3.83314 16.9702 3.509 15.9828 3.42176 14.961V14.954L2.92676 8ZM16.5748 15H16.9998C17.5302 15 18.0389 14.7893 18.414 14.4142C18.789 14.0391 18.9998 13.5304 18.9998 13V10H16.9318L16.5788 14.954V14.961L16.5748 15ZM14.9268 10H5.07376L5.41476 14.797C5.51482 15.9441 6.04117 17.012 6.88995 17.7901C7.73874 18.5682 8.84831 18.9999 9.99976 19C12.0588 19 13.8358 17.62 14.4118 15.711C14.5018 15.416 14.5568 15.124 14.5848 14.797L14.9268 10Z" fill="white"/>
</svg>
