<svg width="24" height="24" viewBox="0 0 24 24" fill="none" xmlns="http://www.w3.org/2000/svg">
<path d="M4 22C3.45 22 2.97933 21.8043 2.588 21.413C2.19667 21.0217 2.00067 20.5507 2 20V8C2 7.45 2.196 6.97933 2.588 6.588C2.98 6.19667 3.45067 6.00067 4 6H8L12 2L16 6H20C20.55 6 21.021 6.196 21.413 6.588C21.805 6.98 22.0007 7.45067 22 8V20C22 20.55 21.8043 21.021 21.413 21.413C21.0217 21.805 20.5507 22.0007 20 22H4ZM4 20H20V8H4V20ZM6 18H18L14.25 13L11.25 17L9 14L6 18ZM17.5 13C17.9167 13 18.271 12.8543 18.563 12.563C18.855 12.2717 19.0007 11.9173 19 11.5C18.9993 11.0827 18.8537 10.7287 18.563 10.438C18.2723 10.1473 17.918 10.0013 17.5 10C17.082 9.99867 16.728 10.1447 16.438 10.438C16.148 10.7313 16.002 11.0853 16 11.5C15.998 11.9147 16.144 12.269 16.438 12.563C16.732 12.857 17.086 13.0027 17.5 13ZM10.1 6H13.9L12 4.1L10.1 6Z" fill="white"/>
</svg>
