<svg width="24" height="24" viewBox="0 0 24 24" fill="none" xmlns="http://www.w3.org/2000/svg">
<path d="M17.653 4.05966C17.6335 4.043 17.6131 4.02735 17.592 4.01278C17.5705 3.99778 17.548 3.98372 17.5255 3.97059C15.4383 2.46194 12.8385 1.84165 10.2951 2.2455C7.7517 2.64936 5.4719 4.04447 3.95477 6.12542C2.43765 8.20638 1.8068 10.8037 2.20032 13.3487C2.59383 15.8937 3.97966 18.1792 6.05444 19.7047C8.12921 21.2303 10.7239 21.8717 13.2705 21.4885C15.8171 21.1054 18.1082 19.7288 19.6422 17.6603C21.1762 15.5917 21.8281 12.9997 21.4553 10.4515C21.0825 7.90337 19.7153 5.60673 17.653 4.06434V4.05966ZM11.9998 14.2493C11.5548 14.2493 11.1198 14.1174 10.7498 13.8702C10.3798 13.6229 10.0914 13.2715 9.9211 12.8604C9.7508 12.4492 9.70624 11.9968 9.79306 11.5604C9.87988 11.1239 10.0942 10.723 10.4088 10.4084C10.7235 10.0937 11.1244 9.87939 11.5609 9.79258C11.9973 9.70576 12.4497 9.75032 12.8609 9.92062C13.272 10.0909 13.6234 10.3793 13.8706 10.7493C14.1179 11.1193 14.2498 11.5543 14.2498 11.9993C14.2498 12.5961 14.0128 13.1684 13.5908 13.5903C13.1689 14.0123 12.5966 14.2493 11.9998 14.2493ZM20.2498 11.9993C20.2498 12.2309 20.2395 12.4606 20.2208 12.6875L15.7498 11.8981C15.7246 10.9735 15.3571 10.0913 14.7186 9.42216L17.323 5.70309C18.2401 6.47597 18.9772 7.43993 19.4828 8.52751C19.9883 9.61508 20.2501 10.8 20.2498 11.9993Z" fill="white"/>
</svg>
