<svg width="24" height="24" viewBox="0 0 24 24" fill="none" xmlns="http://www.w3.org/2000/svg">
<path d="M12 3C14.3869 3 16.6761 3.94821 18.364 5.63604C20.0518 7.32387 21 9.61305 21 12C21 14.453 20.02 16.676 18.427 18.3C17.5901 19.1562 16.5903 19.8362 15.4865 20.2999C14.3827 20.7636 13.1973 21.0016 12 21C10.8181 21 9.64778 20.7672 8.55585 20.3149C7.46392 19.8626 6.47177 19.1997 5.63604 18.364C4.80031 17.5282 4.13738 16.5361 3.68508 15.4442C3.23279 14.3522 3 13.1819 3 12C3 10.8181 3.23279 9.64778 3.68508 8.55585C4.13738 7.46392 4.80031 6.47177 5.63604 5.63604C6.47177 4.80031 7.46392 4.13738 8.55585 3.68508C9.64778 3.23279 10.8181 3 12 3ZM18.326 21C18.8767 20.612 19.3867 20.1787 19.856 19.7C21.8741 17.6455 23.0033 14.8799 23 12C23 5.925 18.075 1 12 1C5.925 1 1 5.925 1 12C1 18.075 5.925 23 12 23H24V21H18.326ZM12 6C11.7348 6 11.4804 6.10536 11.2929 6.29289C11.1054 6.48043 11 6.73478 11 7C11 7.26522 11.1054 7.51957 11.2929 7.70711C11.4804 7.89464 11.7348 8 12 8C12.2652 8 12.5196 7.89464 12.7071 7.70711C12.8946 7.51957 13 7.26522 13 7C13 6.73478 12.8946 6.48043 12.7071 6.29289C12.5196 6.10536 12.2652 6 12 6ZM9 7C9 6.20435 9.31607 5.44129 9.87868 4.87868C10.4413 4.31607 11.2044 4 12 4C12.7956 4 13.5587 4.31607 14.1213 4.87868C14.6839 5.44129 15 6.20435 15 7C15 7.79565 14.6839 8.55871 14.1213 9.12132C13.5587 9.68393 12.7956 10 12 10C11.2044 10 10.4413 9.68393 9.87868 9.12132C9.31607 8.55871 9 7.79565 9 7ZM7 11C6.73478 11 6.48043 11.1054 6.29289 11.2929C6.10536 11.4804 6 11.7348 6 12C6 12.2652 6.10536 12.5196 6.29289 12.7071C6.48043 12.8946 6.73478 13 7 13C7.26522 13 7.51957 12.8946 7.70711 12.7071C7.89464 12.5196 8 12.2652 8 12C8 11.7348 7.89464 11.4804 7.70711 11.2929C7.51957 11.1054 7.26522 11 7 11ZM4 12C4 11.606 4.0776 11.2159 4.22836 10.8519C4.37913 10.488 4.6001 10.1573 4.87868 9.87868C5.15726 9.6001 5.48797 9.37913 5.85195 9.22836C6.21593 9.0776 6.60603 9 7 9C7.39397 9 7.78407 9.0776 8.14805 9.22836C8.51203 9.37913 8.84274 9.6001 9.12132 9.87868C9.3999 10.1573 9.62087 10.488 9.77164 10.8519C9.9224 11.2159 10 11.606 10 12C10 12.7956 9.68393 13.5587 9.12132 14.1213C8.55871 14.6839 7.79565 15 7 15C6.20435 15 5.44129 14.6839 4.87868 14.1213C4.31607 13.5587 4 12.7956 4 12ZM17 11C16.7348 11 16.4804 11.1054 16.2929 11.2929C16.1054 11.4804 16 11.7348 16 12C16 12.2652 16.1054 12.5196 16.2929 12.7071C16.4804 12.8946 16.7348 13 17 13C17.2652 13 17.5196 12.8946 17.7071 12.7071C17.8946 12.5196 18 12.2652 18 12C18 11.7348 17.8946 11.4804 17.7071 11.2929C17.5196 11.1054 17.2652 11 17 11ZM14 12C14 11.2044 14.3161 10.4413 14.8787 9.87868C15.4413 9.31607 16.2044 9 17 9C17.7956 9 18.5587 9.31607 19.1213 9.87868C19.6839 10.4413 20 11.2044 20 12C20 12.7956 19.6839 13.5587 19.1213 14.1213C18.5587 14.6839 17.7956 15 17 15C16.2044 15 15.4413 14.6839 14.8787 14.1213C14.3161 13.5587 14 12.7956 14 12ZM12 16C11.7348 16 11.4804 16.1054 11.2929 16.2929C11.1054 16.4804 11 16.7348 11 17C11 17.2652 11.1054 17.5196 11.2929 17.7071C11.4804 17.8946 11.7348 18 12 18C12.2652 18 12.5196 17.8946 12.7071 17.7071C12.8946 17.5196 13 17.2652 13 17C13 16.7348 12.8946 16.4804 12.7071 16.2929C12.5196 16.1054 12.2652 16 12 16ZM9 17C9 16.2044 9.31607 15.4413 9.87868 14.8787C10.4413 14.3161 11.2044 14 12 14C12.7956 14 13.5587 14.3161 14.1213 14.8787C14.6839 15.4413 15 16.2044 15 17C15 17.7956 14.6839 18.5587 14.1213 19.1213C13.5587 19.6839 12.7956 20 12 20C11.2044 20 10.4413 19.6839 9.87868 19.1213C9.31607 18.5587 9 17.7956 9 17Z" fill="white"/>
</svg>
