<svg width="24" height="24" viewBox="0 0 24 24" fill="none" xmlns="http://www.w3.org/2000/svg">
<path d="M1.55625 17.3063L11.5688 12.6375L3.35625 19.8937L1.55625 17.3063ZM21.5812 5.1L12.8063 11.6625L23.175 7.8375L21.5812 5.1ZM1.51875 6.69375L11.3438 11.7375L0.5625 9.69375L1.51875 6.69375ZM23.4375 15.0375L12.8625 12.1125L22.2375 17.9625L23.4375 15.0375ZM11.925 0.45L12.2062 11.475L8.8125 1.05L11.925 0.45ZM15.0938 23.6437L12.6 12.9938L11.9625 24L15.0938 23.6437ZM16.9313 5.475L12.4125 11.7L14.9625 4.5L16.9313 5.475ZM8.85 19.65L12 12.6937L6.95625 18.525L8.85 19.65ZM17.4188 18.8063L12.825 12.6188L18.9375 17.2313L17.4188 18.8063ZM6.28125 6.84375L11.9813 11.925L7.93125 5.38125L6.28125 6.84375ZM4.4625 11.3813L4.7625 12.3H5.71875L4.93125 12.8625L5.23125 13.7812L4.44375 13.2188L3.65625 13.7812L3.95625 12.8625L3.16875 12.3H4.125L4.4625 11.3813ZM8.08125 22.2375H7.18125L7.9125 22.7625L7.63125 23.6063L8.3625 23.0812L9.09375 23.6063L8.8125 22.7625L9.54375 22.2375H8.64375L8.3625 21.3937L8.08125 22.2375ZM18.3187 20.3625H17.475L18.15 20.85L17.8875 21.6562L18.5625 21.1688L19.2375 21.6562L18.975 20.85L19.65 20.3625H18.8063L18.5438 19.5563L18.3187 20.3625ZM20.9813 10.9875H20.0438L20.7938 11.5312L20.5125 12.4125L21.2625 11.8687L22.0125 12.4125L21.7313 11.5312L22.4813 10.9875H21.5438L21.2625 10.1063L20.9813 10.9875ZM16.1813 1.29375H14.8875L15.9375 2.0625L15.5438 3.3L16.5938 2.53125L17.6437 3.3L17.25 2.0625L18.3 1.29375H17.0062L16.6125 0.05625L16.1813 1.29375ZM3.54375 1.51875H1.95L3.24375 2.45625L2.75625 3.975L4.05 3.0375L5.34375 3.975L4.81875 2.4375L6.1125 1.5H4.51875L4.03125 0L3.54375 1.51875Z" fill="white"/>
</svg>
