<svg width="24" height="24" viewBox="0 0 24 24" fill="none" xmlns="http://www.w3.org/2000/svg">
<path d="M10.4249 11.3438L15.8249 13.3312C15.4499 13.6875 14.9624 13.9687 14.4374 14.1C13.1999 17.5312 10.4249 23.1187 9.4874 23.7188C9.20615 23.9062 8.7749 24 8.4374 24C8.19365 24 7.96865 23.9437 7.7624 23.85C6.61865 23.3062 5.9249 21.3188 5.6999 17.925C5.6249 16.6875 5.30615 15.9187 4.74365 15.675C3.95615 15.3187 2.7749 16.0312 2.38115 16.3312L2.0249 15.8812C2.0999 15.825 3.7124 14.5688 4.96865 15.15C5.7374 15.5063 6.1874 16.425 6.28115 17.8875C6.46865 20.9625 7.0874 22.9125 8.00615 23.325C8.7374 23.6625 9.39365 23.1 9.39365 23.1C9.39365 23.1 10.5937 15.9 11.3062 13.2C10.8187 12.7125 10.4999 12.0562 10.4249 11.3438ZM13.6124 7.7625C11.9249 7.7625 10.5374 9.05625 10.4062 10.725L16.2374 12.8625C16.6124 12.3375 16.8374 11.6812 16.8374 10.9875C16.8374 9.20625 15.3937 7.7625 13.6124 7.7625ZM20.6249 7.7625H21.9562C21.9562 7.7625 21.5812 7.65 20.9999 6.58125C20.4187 5.5125 20.0437 4.25625 20.0437 4.25625V8.71875C19.8749 8.625 19.6874 8.56875 19.4999 8.56875C18.8624 8.56875 18.3562 9.075 18.3562 9.7125C18.3562 10.3313 18.8624 10.8563 19.4999 10.8563C20.1187 10.8563 20.6437 10.35 20.6437 9.7125C20.6437 9.6375 20.6249 7.7625 20.6249 7.7625ZM6.99365 7.7625H8.3249C8.3249 7.7625 7.9499 7.65 7.36865 6.58125C6.7874 5.5125 6.4124 4.25625 6.4124 4.25625V8.71875C6.24365 8.625 6.05615 8.56875 5.86865 8.56875C5.23115 8.56875 4.7249 9.075 4.7249 9.7125C4.7249 10.3313 5.23115 10.8563 5.86865 10.8563C6.4874 10.8563 7.0124 10.35 7.0124 9.7125C7.0124 9.6375 6.99365 7.7625 6.99365 7.7625ZM13.4062 0C12.2624 0 11.3249 0.9375 11.3249 2.08125C11.3249 3.225 12.2624 4.1625 13.4062 4.1625C14.5499 4.1625 15.4874 3.225 15.4874 2.08125C15.4874 0.9375 14.5499 0 13.4062 0Z" fill="white"/>
</svg>
