<svg width="24" height="24" viewBox="0 0 24 24" fill="none" xmlns="http://www.w3.org/2000/svg">
<path d="M6.46875 4.78125C5.55 4.78125 4.8 5.53125 4.8 6.45C4.8 7.36875 5.55 8.11875 6.46875 8.11875C7.3875 8.11875 8.1375 7.36875 8.1375 6.45C8.1375 5.53125 7.3875 4.78125 6.46875 4.78125ZM24 7.1625C24 7.3875 23.8688 7.59375 23.6813 7.70625L19.875 9.91875V18.6937C19.875 18.975 19.65 19.2188 19.35 19.2188H18.8438C18.5625 19.2188 18.3187 18.9937 18.3187 18.6937V14.8875C18.3187 14.625 18.0938 14.4 17.8312 14.4C17.5688 14.4 17.3438 14.625 17.3438 14.8875V18.6937C17.3438 18.975 17.1187 19.2188 16.8187 19.2188H16.3312C16.05 19.2188 15.8063 18.9937 15.8063 18.6937V9.95625L11.8687 7.96875L8.49375 9.91875V18.6937C8.49375 18.975 8.26875 19.2188 7.96875 19.2188H7.4625C7.18125 19.2188 6.9375 18.9937 6.9375 18.6937V14.8875C6.9375 14.625 6.7125 14.4 6.45 14.4C6.1875 14.4 5.9625 14.625 5.9625 14.8875V18.6937C5.9625 18.975 5.7375 19.2188 5.4375 19.2188H4.93125C4.65 19.2188 4.40625 18.9937 4.40625 18.6937V9.95625L0.39375 7.9125C0.15 7.8 0 7.5375 0 7.275C0 6.76875 0.525 6.4125 0.99375 6.61875L6.46875 8.925L11.7375 6.5625C11.8125 6.525 11.9062 6.50625 11.9813 6.50625C12.075 6.50625 12.1875 6.525 12.2812 6.58125C12.3188 6.58125 12.3562 6.6 12.375 6.61875L17.85 8.925L23.1188 6.5625C23.1938 6.525 23.2875 6.50625 23.3625 6.50625C23.7 6.525 24 6.7875 24 7.1625ZM17.85 4.78125C16.9312 4.78125 16.1813 5.53125 16.1813 6.45C16.1813 7.36875 16.9312 8.11875 17.85 8.11875C18.7687 8.11875 19.5187 7.36875 19.5187 6.45C19.5187 5.53125 18.7687 4.78125 17.85 4.78125Z" fill="white"/>
</svg>
