<svg width="24" height="24" viewBox="0 0 24 24" fill="none" xmlns="http://www.w3.org/2000/svg">
<path d="M3.33989 17.0001C6.10089 21.7831 12.2169 23.4211 16.9999 20.6601C18.8757 19.581 20.349 17.9202 21.1969 15.9291C21.8076 14.5013 22.0771 12.9508 21.9839 11.4007C21.8906 9.85054 21.4373 8.34348 20.6599 6.99915C19.8843 5.65423 18.8058 4.5086 17.5102 3.65318C16.2146 2.79776 14.7374 2.25608 13.1959 2.07115C11.0476 1.80945 8.87262 2.25457 6.99989 3.33915C2.21689 6.10115 0.579887 12.2171 3.33989 17.0001Z" stroke="white" stroke-width="1.5"/>
<path d="M13.1957 2.07031C13.1957 2.07031 12.9637 5.66931 15.4637 10.0003C17.9637 14.3313 21.1967 15.9283 21.1967 15.9283M2.80371 8.07031C2.80371 8.07031 6.03571 9.66931 8.53571 14.0003C11.0357 18.3313 10.8037 21.9283 10.8037 21.9283" stroke="white" stroke-width="1.5"/>
</svg>
