<svg width="24" height="24" viewBox="0 0 24 24" fill="none" xmlns="http://www.w3.org/2000/svg">
<path d="M8.11012 19.4504C7.00454 19.043 6.02068 18.3612 5.251 17.469C4.48132 16.5769 3.95109 15.5037 3.71012 14.3504L2.05012 6.54037C1.81012 5.46037 2.50012 4.40037 3.58012 4.17037L13.3501 2.10037L13.3801 2.09037C14.4501 1.88037 15.5001 2.57037 15.7201 3.63037L16.0701 5.30037L20.4201 6.23037H20.4501C21.5001 6.47037 22.1801 7.53037 21.9601 8.59037L20.3001 16.4104C20.1085 17.3087 19.7418 18.1604 19.221 18.917C18.7001 19.6736 18.0354 20.3201 17.2646 20.8197C16.4938 21.3193 15.6322 21.6622 14.7289 21.8287C13.8256 21.9953 12.8984 21.9823 12.0001 21.7904C10.4766 21.4715 9.10575 20.6468 8.11012 19.4504ZM20.0001 8.18037L10.2301 6.10037L8.57012 13.9204V13.9504C8.00012 16.6304 9.73012 19.2704 12.4201 19.8404C15.1101 20.4104 17.7701 18.6904 18.3401 16.0004L20.0001 8.18037ZM16.0001 16.5004C15.6844 17.0354 15.2084 17.4576 14.6395 17.707C14.0705 17.9565 13.4375 18.0206 12.8301 17.8904C12.2244 17.7613 11.6741 17.4462 11.2563 16.9889C10.8385 16.5317 10.5741 15.9553 10.5001 15.3404L16.0001 16.5004ZM8.47012 5.17037L4.00012 6.13037L5.66012 13.9404L5.67012 13.9704C5.82012 14.6804 6.12012 15.3204 6.53012 15.8704C6.43012 15.1004 6.45012 14.3004 6.62012 13.5004L7.05012 11.5004C6.60012 11.4204 6.21012 11.1704 6.00012 10.8104C6.06012 10.2004 6.56012 9.66037 7.25012 9.50037H7.50012L8.28012 5.69037C8.32012 5.50037 8.38012 5.33037 8.47012 5.17037ZM15.0301 12.2304C15.3501 11.7004 16.0301 11.4204 16.7201 11.5704C17.4101 11.7104 17.9101 12.2404 18.0001 12.8604C17.6701 13.3804 17.0001 13.6604 16.3001 13.5004C15.6101 13.3704 15.1101 12.8404 15.0301 12.2304ZM10.1501 11.1904C10.4701 10.6604 11.1401 10.3804 11.8301 10.5304C12.5001 10.6704 13.0301 11.2104 13.1101 11.8204C12.7801 12.3404 12.1101 12.6304 11.4201 12.5004C10.7301 12.3304 10.2301 11.8004 10.1501 11.1904ZM11.9701 4.43037L13.9301 4.85037L13.7701 4.05037L11.9701 4.43037Z" fill="white"/>
</svg>
