<svg width="49" height="48" viewBox="0 0 49 48" fill="none" xmlns="http://www.w3.org/2000/svg">
<path d="M24.2068 47.2597C37.423 47.2597 48.1502 36.8541 48.1502 24.0019C48.1502 11.1497 37.423 0.744119 24.2068 0.744119C10.9906 0.744119 0.263406 11.1497 0.263406 24.0019C0.263406 36.8541 10.9906 47.2597 24.2068 47.2597Z" fill="#D6FF0B" stroke="black" stroke-width="0.527388"/>
<path d="M20.0592 15.2359C17.911 14.1289 16.4573 15.8075 15.8666 16.6817C15.8138 16.7597 15.7136 16.7899 15.6273 16.7521L15.1366 16.5377C15.1278 16.5338 15.1187 16.5306 15.1094 16.5281C14.8576 16.4588 14.7328 16.3765 13.8183 16.2966C12.6543 16.1949 10.0937 17.1206 10.5186 19.1967C10.9434 21.2727 13.0168 22.9494 14.0185 23.9185C15.0202 24.8877 16.2331 27.9457 17.0527 28.0252C17.8723 28.1046 18.4457 26.226 19.4653 23.2056C20.4849 20.1852 22.8916 16.6956 20.0592 15.2359Z" fill="black"/>
<path d="M34.3743 6.62503L28.4721 7.32413C28.4124 7.33121 28.3638 7.37561 28.3514 7.43448L26.5037 16.2113C26.4873 16.2892 26.539 16.3651 26.6175 16.3784L30.3836 17.0164C30.4665 17.0304 30.5185 17.1138 30.4946 17.1944L27.122 28.5852C27.0755 28.7421 27.2896 28.8379 27.3757 28.6987L35.6412 15.3258C35.6947 15.2391 35.641 15.1262 35.5401 15.113L31.6979 14.6123C31.6078 14.6006 31.5525 14.5076 31.5852 14.4228L34.5216 6.81475C34.5597 6.71622 34.4792 6.6126 34.3743 6.62503Z" fill="black" stroke="black" stroke-width="0.140208"/>
<path d="M8.27881 28.3929C8.27881 34.0745 14.291 41.1942 22.3073 41.1942C30.3236 41.1942 37.6543 35.8149 39.9748 23.9629" stroke="black" stroke-width="1.05478"/>
<path d="M5.90576 29.7639C6.48583 28.8323 8.34206 27.3698 11.1264 28.9729" stroke="black" stroke-width="1.05478" stroke-linecap="round"/>
<path d="M37.2327 25.4907C37.8479 24.4888 39.7533 22.9279 42.4533 24.6997" stroke="black" stroke-width="1.05478" stroke-linecap="round"/>
</svg>
