<svg width="50" height="50" viewBox="0 0 50 50" fill="none" xmlns="http://www.w3.org/2000/svg">
<circle cx="25" cy="25" r="24.2637" fill="#D6FF0B" stroke="black" stroke-width="0.527388"/>
<path d="M20.5323 15.2291C18.3842 14.1221 16.9304 15.8007 16.3397 16.6749C16.287 16.7529 16.1868 16.7831 16.1004 16.7454L15.6097 16.5309C15.6009 16.527 15.5918 16.5239 15.5825 16.5213C15.3307 16.452 15.2059 16.3697 14.2914 16.2898C13.1274 16.1881 10.5668 17.1138 10.9917 19.1899C11.4166 21.2659 13.4899 22.9426 14.4916 23.9117C15.4933 24.8809 16.7062 27.9389 17.5258 28.0184C18.3454 28.0978 18.9189 26.2192 19.9384 23.1988C20.958 20.1784 23.3647 16.6888 20.5323 15.2291Z" fill="black"/>
<path d="M34.8473 6.6192L28.9451 7.31831C28.8854 7.32539 28.8368 7.36979 28.8244 7.42866L26.9767 16.2054C26.9603 16.2833 27.012 16.3593 27.0905 16.3726L30.8566 17.0106C30.9395 17.0246 30.9915 17.108 30.9676 17.1886L27.5949 28.5794C27.5485 28.7362 27.7626 28.8321 27.8487 28.6929L36.1142 15.3199C36.1677 15.2333 36.114 15.1203 36.013 15.1072L32.1709 14.6065C32.0808 14.5947 32.0255 14.5017 32.0582 14.417L34.9946 6.80892C35.0327 6.71039 34.9522 6.60678 34.8473 6.6192Z" fill="black" stroke="black" stroke-width="0.140208"/>
<path d="M8.75208 28.3904C8.75208 34.0719 14.7643 41.1917 22.7806 41.1917C30.7969 41.1917 38.1276 35.8123 40.4481 23.9603" stroke="black" stroke-width="1.05478"/>
<path d="M6.37903 29.7604C6.9591 28.8287 8.81532 27.3663 11.5997 28.9694" stroke="black" stroke-width="1.05478" stroke-linecap="round"/>
<path d="M37.7059 25.4886C38.3212 24.4867 40.2266 22.9258 42.9266 24.6976" stroke="black" stroke-width="1.05478" stroke-linecap="round"/>
</svg>
